<?xml version="1.0" encoding="UTF-8"?>
<svg id="Layer_1" data-name="Layer 1" xmlns="http://www.w3.org/2000/svg" viewBox="0 0 500 500">
  <defs>
    <style>
      .cls-1 {
        fill: #4ec218;
        stroke: white;
        stroke-width: 30px;
      }
    </style>
  </defs>
  <path class="cls-1" d="m95.88,467.82c-6.2-3.42-10.81-7.96-9.28-15.73.55-2.79,2.06-5.55,3.69-7.94,43.05-63.22,86.16-126.41,129.37-189.51,2.15-3.14,2.35-5.11.1-8.39-43.32-63.21-86.49-126.52-129.65-189.84-1.41-2.07-2.86-4.34-3.43-6.72-2.16-9.1,4.31-16.69,14.04-16.7,47.13-.02,94.26-.01,141.39-.01,5.52,0,11.06.31,16.55-.07,7.46-.52,12.43,2.52,16.58,8.67,21.43,31.77,43.13,63.35,64.73,95,23.6,34.57,47.2,69.14,70.79,103.71,5.29,7.76,5.3,12.45.02,20.17-44.88,65.75-89.71,131.53-134.73,197.19-2.68,3.91-6.83,6.8-10.29,10.17H95.88Z"/>
</svg>