<?xml version="1.0" encoding="UTF-8" standalone="no"?>
<!DOCTYPE svg PUBLIC "-//W3C//DTD SVG 1.1//EN" "http://www.w3.org/Graphics/SVG/1.1/DTD/svg11.dtd">
<svg width="100%" height="100%" viewBox="0 0 800 800" version="1.1" xmlns="http://www.w3.org/2000/svg" xmlns:xlink="http://www.w3.org/1999/xlink" xml:space="preserve" xmlns:serif="http://www.serif.com/" style="fill-rule:evenodd;clip-rule:evenodd;stroke-miterlimit:10;">
    <g transform="matrix(0.708845,0,0,0.708845,116.462,116.462)">
        <rect x="81.667" y="50" width="318.333" height="700" style="fill:none;stroke:black;stroke-width:63.67px;"/>
    </g>
    <g transform="matrix(0.708845,0,0,0.708845,116.462,116.462)">
        <rect x="400" y="50" width="318.333" height="700" style="fill:none;stroke:black;stroke-width:63.67px;"/>
    </g>
    <g transform="matrix(0.708845,0,0,0.708845,116.462,116.462)">
        <path d="M781.667,750L18.333,750" style="fill:none;fill-rule:nonzero;stroke:black;stroke-width:63.67px;"/>
    </g>
    <g transform="matrix(0.41085,0,0,0.41085,400,400)">
        <g transform="matrix(1,0,0,1,-407.114,-407.114)">
            <clipPath id="_clip1">
                <rect x="0" y="0" width="814.229" height="814.229"/>
            </clipPath>
            <g clip-path="url(#_clip1)">
                <g transform="matrix(1,0,0,1,5817.71,6451.66)">
                    <g id="Livello-1" serif:id="Livello 1">
                        <g id="Layer-1" serif:id="Layer 1">
                            <path id="path4863" d="M-5005.98,-6044.54C-5005.98,-6268 -5187.14,-6449.16 -5410.6,-6449.16C-5634.06,-6449.16 -5815.21,-6268 -5815.21,-6044.54C-5815.21,-5821.08 -5634.06,-5639.93 -5410.6,-5639.93C-5187.14,-5639.93 -5005.98,-5821.08 -5005.98,-6044.54Z" style="fill:white;stroke:black;stroke-width:5px;stroke-linejoin:bevel;stroke-miterlimit:22.9256;"/>
                            <path id="path4865" d="M-5028.1,-6044.54L-5028.6,-6064.24L-5030.07,-6083.67L-5032.51,-6102.81L-5035.88,-6121.65L-5040.14,-6140.15L-5045.29,-6158.29L-5051.31,-6176.06L-5058.15,-6193.42L-5065.82,-6210.36L-5074.26,-6226.86L-5083.47,-6242.87L-5093.42,-6258.39L-5104.08,-6273.39L-5115.44,-6287.84L-5127.46,-6301.73L-5140.14,-6315.01L-5153.42,-6327.68L-5167.3,-6339.7L-5181.75,-6351.06L-5196.75,-6361.72L-5212.27,-6371.68L-5228.29,-6380.88L-5244.78,-6389.33L-5261.72,-6396.99L-5279.08,-6403.83L-5296.85,-6409.85L-5315,-6415L-5333.5,-6419.27L-5352.33,-6422.63L-5371.48,-6425.07L-5390.9,-6426.55L-5410.6,-6427.05L-5430.3,-6426.55L-5449.72,-6425.07L-5468.87,-6422.63L-5487.7,-6419.27L-5506.2,-6415L-5524.35,-6409.85L-5542.12,-6403.83L-5559.48,-6396.99L-5576.42,-6389.33L-5592.91,-6380.88L-5608.93,-6371.68L-5624.45,-6361.72L-5639.45,-6351.06L-5653.9,-6339.7L-5667.78,-6327.68L-5681.07,-6315.01L-5693.74,-6301.73L-5705.76,-6287.84L-5717.12,-6273.39L-5727.78,-6258.39L-5737.73,-6242.87L-5746.94,-6226.86L-5755.39,-6210.36L-5763.05,-6193.42L-5769.89,-6176.06L-5775.91,-6158.29L-5781.06,-6140.15L-5785.33,-6121.65L-5788.69,-6102.81L-5791.13,-6083.67L-5792.61,-6064.24L-5793.11,-6044.54L-5792.61,-6024.85L-5791.13,-6005.42L-5788.69,-5986.27L-5785.33,-5967.44L-5781.06,-5948.94L-5775.91,-5930.79L-5769.89,-5913.03L-5763.05,-5895.66L-5755.39,-5878.72L-5746.94,-5862.23L-5737.73,-5846.21L-5727.78,-5830.69L-5717.12,-5815.69L-5705.76,-5801.24L-5693.74,-5787.36L-5681.07,-5774.08L-5667.78,-5761.4L-5653.9,-5749.38L-5639.45,-5738.02L-5624.45,-5727.36L-5608.93,-5717.41L-5592.91,-5708.2L-5576.42,-5699.76L-5559.48,-5692.1L-5542.12,-5685.25L-5524.35,-5679.23L-5506.2,-5674.08L-5487.7,-5669.81L-5468.87,-5666.45L-5449.72,-5664.02L-5430.3,-5662.54L-5410.6,-5662.04L-5390.9,-5662.54L-5371.48,-5664.02L-5352.33,-5666.45L-5333.5,-5669.81L-5315,-5674.08L-5296.85,-5679.23L-5279.08,-5685.25L-5261.72,-5692.1L-5244.78,-5699.76L-5228.29,-5708.2L-5212.27,-5717.41L-5196.75,-5727.36L-5181.75,-5738.02L-5167.3,-5749.38L-5153.42,-5761.4L-5140.14,-5774.08L-5127.46,-5787.36L-5115.44,-5801.24L-5104.08,-5815.69L-5093.42,-5830.69L-5083.47,-5846.21L-5074.26,-5862.23L-5065.82,-5878.72L-5058.15,-5895.66L-5051.31,-5913.03L-5045.29,-5930.79L-5040.14,-5948.94L-5035.88,-5967.44L-5032.51,-5986.27L-5030.07,-6005.42L-5028.6,-6024.85L-5028.1,-6044.54Z" style="fill:rgb(255,0,0);"/>
                            <rect id="path4867" x="-5729.35" y="-6108.29" width="637.51" height="127.503" style="fill:white;"/>
                        </g>
                    </g>
                </g>
            </g>
        </g>
    </g>
</svg>
